<?xml version="1.0" encoding="UTF-8"?>
<svg xmlns="http://www.w3.org/2000/svg" viewBox="0 0 192 175.72">
  <defs>
    <style>
      .cls-1, .cls-2 {
        fill: #e7e8eb;
      }

      .cls-3 {
        fill: #fff;
      }

      .cls-4 {
        isolation: isolate;
      }

      .cls-5 {
        stroke: #282f53;
      }

      .cls-5, .cls-6 {
        fill: none;
        stroke-miterlimit: 10;
      }

      .cls-6 {
        stroke: #292929;
        stroke-width: 4px;
      }

      .cls-7 {
        fill: #292929;
      }

      .cls-8 {
        fill: #282f53;
      }

      .cls-2 {
        mix-blend-mode: multiply;
      }
    </style>
  </defs>
  <g class="cls-4">
    <g id="Layer_1" data-name="Layer 1">
      <ellipse class="cls-6" cx="97.03" cy="94.59" rx="70.49" ry="66.84"/>
      <ellipse class="cls-5" cx="97.03" cy="94.59" rx="65.44" ry="62.05"/>
      <g>
        <path class="cls-1" d="m57.09,60.55c1.49,1.71,3.6,2.93,5.91,3.33,1.15.2,2.45.19,3.63-.1,1.15-.28,2.34-1.11,3.57-.74.71.22,1.23.8,1.66,1.38.15.2.3.42.3.66,0,.4-.4.69-.77.89-1.97,1.06-4.23,1.5-6.44,1.92-1.77.34-3.58.68-5.37.45-.52-.07-1.05-.19-1.51-.42-.72-.37-1.25-.99-1.78-1.58-.76-.82-1.57-1.59-2.44-2.31-.55-.46-1.13-.89-1.61-1.42-1.49-1.62-1.91-3.94-1.62-6.08s1.22-4.14,2.15-6.1c.13-.28.27-.56.49-.77,1.38-1.32.73,2.63.75,3.19.1,2.69,1.21,5.54,3.09,7.7Z"/>
        <path class="cls-1" d="m83.81,62.53c.91-.09,1.89-.22,2.69.2.8.43,1.1,1.7.31,2.13-.28.15-.61.16-.93.17-2.59.03-5.17-.13-7.75-.29-1.69-.11-3.4-.21-5-.72-1.22-.39-2.36-1-3.42-1.69-1.46-.96-2.82-2.1-3.98-3.37-.37-.4-1.2-1.19-.16-1.37.57-.1,1.67.94,2.14,1.22,3.04,1.81,6.47,3.06,10.02,3.58,2.01.29,4.06.35,6.09.15Z"/>
        <path class="cls-1" d="m110.73,62.83c.41-.09,2.03-.12,2.44-.03.34.07.94.56,1.21.76,1,.76.37,1.29,1.06,2.32-1.34.88-3.15.47-4.74.14-4.68-.95-9.53-.75-14.3-.33-2.05.18-4.17.39-6.13-.21-1.31-.4-2.52-1.19-3.39-2.21-.91-1.08-2.45-2.18-.75-1.82,11.05,2.35,22.29,1.86,24.61,1.37Z"/>
        <path class="cls-1" d="m111.28,58.67c.55,2.98,3.03,5.42,5.96,6.61,2.93,1.19,6.25,1.25,9.4.79,3.23-.47,6.39-1.47,9.18-3.09,1.05-.61,2.08-1.33,2.72-2.34.8-1.25.9-2.78.97-4.24,3.14,1.31,5.09,4.79,4.47,7.99-.15.81-.46,1.6-.99,2.24-1.1,1.33-2.96,1.83-4.69,2.24-2.93.71-6.03,1.41-8.92.57-1.09-.32-2.11-.84-3.19-1.2-2.17-.71-4.52-.68-6.81-.89-.7-.06-1.41-.15-2.05-.42-1.59-.67-2.46-2.28-3.2-3.78"/>
        <path class="cls-1" d="m123.75,38.93c1.61-.17,3.26-.3,4.82.12,1.01.27,1.95.75,2.82,1.31,4.68,2.97,7.69,7.9,9.21,13.05.7-4.35.23-8.86-1.35-12.99-.79-2.05-1.93-4.1-3.85-5.31-1.19-.75-2.6-1.12-4.01-1.37-2.6-.46-5.33-.52-7.87.2-.62.17-1.23.4-1.75.75-.56.38-1,.89-1.55,1.28-.66.46-1.44.71-2.18,1.05-2.41,1.08-4.2,2.95-5.92,4.83,3.74-1.61,7.53-2.47,11.63-2.9Z"/>
        <path class="cls-1" d="m91.43,40.66c4.08-5.47,11.35-8.31,18.41-8.28,3.69.02,7.55.83,10.29,3.17.16-1.79-1.35-3.29-2.86-4.38-1.99-1.44-4.22-2.63-6.65-3.18s-5.09-.42-7.31.67c-1.03.5-1.94,1.19-2.84,1.88-1.03.78-1.95-.56-2.98.23-1.04.79-2.67,2.01-3.42,3.05-.75,1.04-2.8,4.33-2.41,5.53"/>
        <path class="cls-1" d="m76.01,36.6c4.18-3.3,9.49-5.04,14.8-6.14,2.63-.54,5.38-.94,8-.37-1.39-2.7-4.47-4.34-7.6-4.83-3.12-.49-6.32,0-9.42.59-1.31.25-2.62.52-3.85,1.02-1.39.57-2.63,1.41-3.84,2.27-1.47,1.05-2.93,2.14-4.12,3.48-2.08,2.35-3.23,5.47-2.94,8.53.15,1.59.66,3.12,1.18,4.64.36,1.08.7,2.17,1.1,3.23.44-2.35.62-4.48,1.8-6.68,1.24-2.3,2.99-3.95,4.88-5.75Z"/>
        <path class="cls-7" d="m71.38,71.59c-4.48.32-8.86-1.25-12.98-2.91-5.43-2.1-11.59-7.09-10.12-13.67,1.72-7.77,11.69-13.4,19.22-11.96-6.05.85-12.03,4.76-15.03,10-3.32,6.08,2.16,10.51,7.11,13.27,3.77,2.06,7.56,4.2,11.8,5.28h0Z"/>
        <path class="cls-7" d="m70.37,52.6c-4.63-5.66-7.92-14.43-2.96-21,4.72-6.22,12.82-9.02,20.35-8.38,4.7.46,10.55,2.88,11.52,8.02-2.95-3.48-7.43-3.88-11.6-3.59-6.47.7-14.34,3.52-17.53,9.42-2.25,4.77-.47,10.45.21,15.53h0Z"/>
        <path class="cls-7" d="m90.08,43.99c.21-5.42,2.01-11.61,6.81-15.01,6.44-4.7,16.23-3.84,21.61,1.99,1.26,1.46,2.21,3.37,1.99,5.23-1.57-3.16-4.77-4.4-7.9-5.26-6-1.5-12.65-.25-16.79,4.52-2.14,2.36-3.75,5.47-5.73,8.52h0Z"/>
        <path class="cls-7" d="m111.14,55.57c-.55,4.95,3.85,8.24,7.75,10.23,6.93,3.35,15.93,3.99,22.39-.68,5.52-4.31-2.1-9.63-6.41-10.98,2.4.22,4.82.94,6.95,2.35,6.04,4.2,3.82,10-2.13,12.8-6.88,3.52-15.5,2.47-21.93-1.43-4.02-2.42-8.58-7.26-6.62-12.29h0Z"/>
        <path class="cls-7" d="m63.75,53.86c1.91,6.64,9.09,9.3,15.4,9.45,0,0,2.75.02,2.75.02,0,0-.63,5.97-.63,5.97-7.8-1.71-17.12-6.43-17.51-15.43h0Z"/>
        <path class="cls-7" d="m83.85,58.17c2.14,4.61,7.74,5.29,12.25,5.25,0,0,2.01-.09,2.01-.09l-.66,5.96c-5.54-1.65-12.87-4.58-13.6-11.12h0Z"/>
        <g>
          <path class="cls-3" d="m128.86,83.49c-22.43-5.76-45.96-5.76-68.39,0-1.22-4.74-2.44-9.48-3.65-14.23,24.83-6.37,50.86-6.37,75.69,0-1.22,4.74-2.44,9.48-3.65,14.23Z"/>
          <path class="cls-7" d="m129.37,84.36c-5.62.47-12.06-1.48-17.71-2.18-11.27-1.66-22.75-2.29-34.13-1.15-6.02.62-12.08,1.57-17.75,3.79,0,0-.27-1.07-.27-1.07,0,0-3.65-14.23-3.65-14.23,0,0-.19-.73-.19-.73,4.4-2.61,10.01-3.09,14.95-4,15.88-2.45,32.2-2.06,48.02.62,4.93.86,10.23,2.12,15.12,3.09-1.34,5.31-2.85,10.68-4.37,15.86h0Zm-1.02-1.72c1.01-4.63,2.02-9.1,3.19-13.61,0,0,.72,1.22.72,1.22-5.88-1.76-12.55-2.78-18.65-3.52-14.13-1.62-28.49-1.03-42.5,1.23-4.56.63-9.42,2.26-14.04,2.3,0,0,.72-1.22.72-1.22l3.65,14.23s-1.22-.72-1.22-.72c5.76-.87,11.37-2.18,17.11-3.03,11.48-1.76,23.21-2.39,34.8-1.15,2.53.3,6.19.81,8.67,1.28,2.93.62,4.83,1.18,7.54,3.01h0Z"/>
        </g>
        <path class="cls-7" d="m57.28,72.87c9.73-2.25,19.71-2.04,29.47-.34-7.21-.28-14.48.36-21.47,2.09-2.28.56-4.64,1.26-6.67,2.08l-1.33-3.83h0Z"/>
        <g>
          <path class="cls-3" d="m99.9,76.44s18.71-1.34,29.54,3.25"/>
          <path class="cls-7" d="m99.9,76.44c10.03-.9,20.41-1.33,30.13,1.87,0,0-1.17,2.76-1.17,2.76-8.85-3.93-19.28-4.55-28.96-4.64h0Z"/>
        </g>
        <path class="cls-7" d="m139.19,46.37c.61,3.02.6,6.21.67,9.45l.92.84c.21-1.13.42-2.25.59-3.4.33-2.35.54-4.76.29-7.22-.23-2.44-.88-4.93-2.22-7.2-.67-1.13-1.52-2.19-2.55-3.11-1.04-.9-2.22-1.64-3.49-2.19-5.11-2.21-11.14-1.34-15.51,1.4-2.23,1.31-4.1,3.02-5.73,4.86-1.61,1.86-2.97,3.86-4.1,5.97,3.35-3.47,6.88-6.77,11.06-8.77,1.04-.49,2.12-.9,3.19-1.2,1.08-.29,2.2-.47,3.31-.54,2.23-.14,4.48.18,6.43,1.05,1.97.84,3.6,2.21,4.75,4,1.18,1.77,1.89,3.88,2.36,6.06Z"/>
        <path class="cls-2" d="m128.28,71.42c.53.84.9,1.87.54,2.78-.34.86-1.26,1.4-2.21,1.59-.94.19-1.92.08-2.88-.01-5.88-.57-11.83-.48-17.69.27,5.82,1.53,12.38.59,17.62,3.43-3.18,1.23-6.78.33-10.17-.18-4.06-.61-8.19-.65-12.3-.69.19.33.59.5.96.63,8.6,3.17,18.3,2.22,27.18,4.6-.46-4.77,3.12-9.13,3.36-13.91,0-.18.01-.37-.08-.52-.09-.15-.24-.24-.39-.33-1.2-.68-2.5-1.18-3.85-1.49-.99-.23-3.29-.83-4.25-.36-1.38.66.78,1.17,1.45,1.57,1.11.66,2.06,1.57,2.73,2.63Z"/>
        <path class="cls-2" d="m68.44,69.52c-.34,1.21,3.97.33,4.35.31,2.97-.1,3.95,1.1,5.69,2.13-3.78-.63-7.79.04-11.11,1.89-.64.35-1.18.86-1.5,1.49-.1.2-.18.44-.12.66.07.25.3.42.52.57,1.29.86,2.75,1.49,4.29,1.82,1.12.24,2.28.33,3.42.41,2.63.19,5.25.38,7.88.57-6.97.48-13.88,1.86-20.46,4.08-.15.05-.33.1-.47.02-.1-.06-.15-.19-.18-.3-1.2-3.96-2.41-7.92-3.61-11.88-.23-.75-.43-1.62.05-2.24.4-.51,1.12-.67,1.78-.77,2-.33,4.01-.57,6.04-.72,1.72-.13,3.46-.21,5.12-.67,1.01-.28,1.97-.69,2.98-1,2.5-.78,5.36-.83,7.88-.07-1.46.44-12.24,2.64-12.54,3.71Z"/>
      </g>
      <g>
        <path class="cls-7" d="m94.18,92.22c-1.45,1.75-1.86,4.08-1.35,6.26.59,2.52,1.84,4.48,3.04,5.72,2.35,2.44,8.05,6.47,13.83,7.51,8.21,1.47,20.35-.89,24.43-8.71.88-1.69,1.27-3.56,1.2-5.44-.08-2.22-.85-4.47-2.52-6.08-2.74-2.64-7.83-2.96-10.77,0-1.04,1.05-1.58,2.43-1.48,3.83.1,1.45.87,2.77,1.84,3.87.44.5,1.25,1.32,2.03,1.18.68-.12.84-.52.88-.93.1-1.04-.96-1.78-1.38-2.64-.49-.99-.58-2.25.05-3.21.68-1.04,1.99-1.31,3.17-.97,3.58,1.04,5.04,6.9,1.28,8.65-1.66.77-3.95.86-5.66.23-4.25-1.56-7.48-5.38-10.91-8.09-3.25-2.57-7.4-4.65-11.76-4.02-2.22.32-4.34.91-5.92,2.82Z"/>
        <path class="cls-7" d="m92.65,92.22c1.45,1.75,1.86,4.08,1.35,6.26-.59,2.52-1.84,4.48-3.04,5.72-2.35,2.44-8.05,6.47-13.83,7.51-8.21,1.47-20.35-.89-24.43-8.71-.88-1.69-1.27-3.56-1.2-5.44.08-2.22.85-4.47,2.52-6.08,2.74-2.64,7.83-2.96,10.77,0,1.04,1.05,1.58,2.43,1.48,3.83-.1,1.45-.87,2.77-1.84,3.87-.44.5-1.25,1.32-2.03,1.18-.68-.12-.84-.52-.88-.93-.1-1.04.96-1.78,1.38-2.64.49-.99.58-2.25-.05-3.21-.68-1.04-1.99-1.31-3.17-.97-3.58,1.04-5.04,6.9-1.28,8.65,1.66.77,3.95.86,5.66.23,4.25-1.56,7.48-5.38,10.91-8.09,3.25-2.57,7.4-4.65,11.76-4.02,2.22.32,4.34.91,5.92,2.82Z"/>
        <path class="cls-3" d="m92.36,97.45c-.68,4.43-4.4,7.49-8.03,9.69-7.41,4.69-17.44,4.38-24.98.14-3.72-2.16-6.76-6.23-6.27-10.68-.03,4.37,2.96,8.04,6.66,10.01,7.4,3.84,16.92,4.14,24.21-.13,3.66-2.04,7.32-4.75,8.42-9.03h0Z"/>
        <path class="cls-3" d="m94.97,97.45c1.1,4.29,4.75,6.99,8.42,9.03,7.29,4.28,16.81,3.97,24.21.13,3.7-1.98,6.69-5.65,6.66-10.01.48,4.45-2.55,8.52-6.27,10.68-7.54,4.25-17.57,4.55-24.98-.14-3.63-2.2-7.36-5.27-8.03-9.69h0Z"/>
      </g>
      <g>
        <polygon class="cls-8" points="45.42 149.51 19.04 149.51 25.55 135.78 19.04 122.82 45.42 122.82 45.42 149.51"/>
        <rect class="cls-8" x="36.33" y="114.18" width="66.99" height="26.69"/>
        <path class="cls-8" d="m45.42,149.51c-.34-.51-9.87-8.77-9.87-8.77h9.76l.11,8.26"/>
        <polygon class="cls-8" points="148.65 149.51 175.02 149.51 168.52 135.78 175.02 122.82 148.65 122.82 148.65 149.51"/>
        <rect class="cls-8" x="90.75" y="114.18" width="66.99" height="26.69" transform="translate(248.49 255.05) rotate(180)"/>
        <path class="cls-8" d="m148.65,149.51c.34-.51,9.88-8.77,9.88-8.77h-9.76l-.11,8.26"/>
        <g>
          <path class="cls-3" d="m69.19,131.23c-.46,0-.93-.01-1.39-.04-.47-.03-.94-.08-1.43-.15-.48-.08-.89-.13-1.22-.16-.33-.03-.59-.04-.79-.04-.24,0-.45.02-.63.06-.19.04-.35.1-.5.19-.26.15-.39.32-.39.49,0,.23.16.37.47.41l3.02.45c.31.03.57.16.78.39.26.25.39.56.36.93-.05,1.38-.89,2.32-2.52,2.82-.54.18-1.23.31-2.07.4-.84.08-1.83.13-2.99.13-3.44,0-5.17-1.2-5.19-3.6,0-.45.09-.95.26-1.5s.44-1.18.79-1.88c.24-.49.51-.74.79-.74s.43.14.43.41c0-.03-.11.25-.33.86-.23.6-.34,1.11-.34,1.54,0,1.09.67,1.85,2,2.3.79.26,1.74.4,2.84.4,3.29,0,4.94-.24,4.94-.73,0-.18-.21-.3-.64-.34l-2.66-.45c-.89-.16-1.33-.49-1.33-.99,0-.43.1-.85.31-1.25.21-.4.51-.8.9-1.19.96-.94,2.17-1.41,3.64-1.41.08,0,.22,0,.41.02.19.01.44.02.73.04.31.03.61.05.9.06.29.01.57.02.83.02.3,0,.45.12.45.36v1.88c0,.24-.15.37-.45.37Z"/>
          <path class="cls-3" d="m83.01,127.44c0,1-.22,1.86-.67,2.58-.26.4-.56.71-.9.91-.34.2-.73.3-1.15.3-.64,0-1.16-.14-1.56-.41-.15-.11-.3-.25-.45-.42-.15-.17-.3-.37-.46-.62-.57.96-1.28,1.44-2.12,1.44-.64,0-1.15-.14-1.53-.41-.16-.11-.31-.25-.46-.42-.14-.17-.29-.37-.42-.62-.23.26-.46.47-.69.65-.24.17-.47.32-.72.43-.29.13-.61.22-.98.28-.37.06-.77.09-1.21.09h-.63c-.3,0-.45-.12-.45-.37v-1.88c0-.24.15-.36.45-.36h1.06c.44,0,.83-.05,1.16-.15.33-.1.62-.24.85-.43.4-.33.61-.77.61-1.31,0-.47.17-.7.51-.7s.5.23.5.7c0,.19.03.38.09.57.06.19.16.39.3.59.35.48.79.72,1.31.72s.98-.24,1.33-.72c.26-.38.4-.77.4-1.16,0-.47.16-.7.49-.7s.5.23.5.7c0,.39.14.78.41,1.16.35.48.83.72,1.42.72,1.2,0,1.81-.31,1.81-.94,0-.26-.36-.79-1.07-1.6l1.21-1.92c.72.91,1.08,2,1.08,3.27Zm-6.87-3.94l-1.24-1.2,1.24-1.24,1.23,1.24-1.23,1.2Zm1.41-2.4l-1.23-1.21,1.23-1.22,1.23,1.22-1.23,1.21Zm1.41,2.4l-1.24-1.2,1.24-1.24,1.23,1.24-1.23,1.2Z"/>
          <path class="cls-3" d="m88.76,131.23h-.65c-.48,0-.92-.07-1.3-.22-.38-.15-.71-.37-.99-.68-.44-.49-.66-1.02-.66-1.58,0-.46-.02-1.05-.05-1.77-.03-.72-.08-1.58-.14-2.56-.08-1.12-.16-2.09-.25-2.89-.08-.81-.17-1.47-.27-2l.54-.49c.88-.81,1.37-1.22,1.45-1.22.08,0,.15.71.2,2.12l.23,7.3c.01.26.05.49.12.67s.16.33.3.44c.24.19.62.28,1.17.28.46,0,.69.12.69.36v1.88c0,.24-.13.37-.4.37Z"/>
          <path class="cls-3" d="m93.37,127.2c0,2.69-1.28,4.03-3.83,4.03h-.96c-.3,0-.45-.12-.45-.37v-1.88c0-.24.15-.36.45-.36,2.27,0,3.4-.23,3.4-.69,0-.26-.43-.89-1.29-1.89l1.44-2.12c.82.87,1.23,1.96,1.23,3.27Zm-3.05,8.9l-1.45-1.39,1.45-1.36,1.45,1.36-1.45,1.39Z"/>
          <path class="cls-3" d="m106.7,131.23c-.87,0-1.49-.09-1.85-.27.04.09.06.2.07.33,0,.13.01.28.01.44,0,.18-.02.39-.06.62-.04.23-.1.5-.19.81-.1.33-.22.65-.35.95-.13.3-.28.57-.45.81-.81,1.21-1.42,1.82-1.83,1.82-.33,0-.72-.02-1.16-.05-.44-.03-.94-.08-1.5-.15-1.24-.13-1.86-.27-1.86-.4,0-.14.33-.31.98-.52.63-.2,1.24-.48,1.83-.82.59-.34,1.17-.76,1.75-1.24,1.08-.91,1.62-1.63,1.62-2.17s-.65-1.42-1.95-2.7l1.13-2.43c.34.46.64.84.91,1.14.27.3.51.52.72.66.28.2.6.34.97.43.37.09.77.13,1.21.12.31-.02.46.1.46.36v1.88c0,.24-.15.37-.46.37Zm-4.04-6.36l-1.45-1.39,1.45-1.36,1.45,1.36-1.45,1.39Z"/>
          <path class="cls-3" d="m114.68,131.23h-.68c-.93,0-1.78-.54-2.57-1.62-.25.46-.67.84-1.26,1.15-.59.31-1.16.47-1.71.47h-1.89c-.3,0-.45-.12-.45-.37v-1.88c0-.24.15-.36.45-.36h1.22c.56,0,1.04-.04,1.43-.13s.72-.22.98-.41c.25-.18.44-.42.56-.71.12-.29.18-.64.18-1.04,0-.32.17-.48.52-.48.12,0,.23.05.33.15.09.1.14.21.14.33,0,1.52.83,2.29,2.49,2.29h.28c.3,0,.45.12.45.36v1.88c0,.24-.15.37-.45.37Zm-5.52,4.38l-1.31-1.26,1.31-1.24,1.31,1.24-1.31,1.26Zm1.5,2.47l-1.32-1.26,1.32-1.24,1.31,1.24-1.31,1.26Zm1.5-2.47l-1.31-1.26,1.31-1.24,1.31,1.24-1.31,1.26Z"/>
          <path class="cls-3" d="m128.51,127.44c0,1-.22,1.86-.67,2.58-.26.4-.56.71-.9.91-.34.2-.73.3-1.15.3-.64,0-1.16-.14-1.56-.41-.15-.11-.3-.25-.45-.42-.15-.17-.3-.37-.46-.62-.57.96-1.28,1.44-2.12,1.44-.64,0-1.15-.14-1.53-.41-.16-.11-.31-.25-.46-.42-.14-.17-.29-.37-.42-.62-.23.26-.46.47-.69.65-.24.17-.47.32-.72.43-.29.13-.61.22-.98.28-.37.06-.77.09-1.21.09h-.63c-.3,0-.45-.12-.45-.37v-1.88c0-.24.15-.36.45-.36h1.06c.44,0,.83-.05,1.16-.15.33-.1.62-.24.85-.43.4-.33.61-.77.61-1.31,0-.47.17-.7.51-.7s.5.23.5.7c0,.19.03.38.09.57.06.19.16.39.3.59.35.48.79.72,1.31.72s.98-.24,1.33-.72c.26-.38.4-.77.4-1.16,0-.47.16-.7.49-.7s.5.23.5.7c0,.39.14.78.41,1.16.35.48.83.72,1.42.72,1.2,0,1.81-.31,1.81-.94,0-.26-.36-.79-1.07-1.6l1.21-1.92c.72.91,1.08,2,1.08,3.27Zm-6.87-3.94l-1.24-1.2,1.24-1.24,1.23,1.24-1.23,1.2Zm1.41-2.4l-1.23-1.21,1.23-1.22,1.23,1.22-1.23,1.21Zm1.41,2.4l-1.24-1.2,1.24-1.24,1.23,1.24-1.23,1.2Z"/>
          <path class="cls-3" d="m132.49,116.55c-.21.11-.48.19-.83.24-.35.05-.77.07-1.26.07-.73,0-1.21.28-1.43.83-.27-.09-.41-.34-.41-.74,0-.3.11-.57.32-.83.28-.31.65-.46,1.12-.44l1.1.03c.33.01.62,0,.86-.03.25-.03.46-.1.64-.19.18-.09.34-.21.47-.34.13-.14.25-.31.35-.5l.2.43c-.12.64-.5,1.13-1.15,1.47Zm-.58,13.96c-.31.87-.56,1.31-.76,1.31-.07,0-.13-.19-.2-.58-.03-.22-.07-.64-.13-1.25-.05-.61-.12-1.43-.2-2.44l-.66-8,.83-.66c.89-.7,1.34-1.06,1.37-1.06.09,0,.15.71.18,2.12l.05,8.52c0,.49-.16,1.18-.47,2.05Z"/>
        </g>
      </g>
      <path class="cls-3" d="m22.21,147.34c6.34-.51,12.71-.51,19.05,0-6.34.51-12.71.51-19.05,0h0Z"/>
      <path class="cls-8" d="m153.34,147.34c6.34-.51,12.71-.51,19.04,0-6.34.51-12.71.51-19.04,0h0Z"/>
    </g>
  </g>
</svg>